<?xml version="1.0" encoding="UTF-8" standalone="no"?>
<svg width="201px" height="174px" viewBox="0 0 201 174" version="1.1" xmlns="http://www.w3.org/2000/svg" xmlns:xlink="http://www.w3.org/1999/xlink" xmlns:sketch="http://www.bohemiancoding.com/sketch/ns">
    <!-- Generator: Sketch 3.4.4 (17249) - http://www.bohemiancoding.com/sketch -->
    <title>helmet</title>
    <desc>Created with Sketch.</desc>
    <defs>
        <linearGradient x1="47.1322%" y1="36.4906382%" x2="75.4779%" y2="73.2364718%" id="linearGradient-1">
            <stop stop-color="#FFFFFF" offset="0%"></stop>
            <stop stop-color="#C5C5C5" offset="76.1421%"></stop>
            <stop stop-color="#5D5D5D" offset="100%"></stop>
        </linearGradient>
    </defs>
    <g id="Page-1" stroke="none" stroke-width="1" fill="none" fill-rule="evenodd" sketch:type="MSPage">
        <g id="helmet" sketch:type="MSLayerGroup" transform="translate(1.000000, 1.000000)">
            <g sketch:type="MSShapeGroup">
                <path d="M194.692433,156.485005 C196.405807,156.913345 198.690315,153.772157 198.975875,149.774275 C199.261435,145.776394 199.832568,135.924462 199.832568,127.928699 C199.832568,119.932935 198.690315,110.937698 197.833621,107.510949 C196.97694,104.084188 193.187712,100.263664 191.979585,103.370287 C190.980111,105.940355 192.179353,106.368695 193.036047,110.081017 C193.89274,113.793339 195.549126,122.503003 195.549126,132.212154 C195.549126,141.921292 195.120773,146.347514 195.120773,148.774802 C195.120773,151.202089 193.407399,150.773749 192.979059,151.344869 C192.550705,151.916003 191.836805,152.915463 191.979585,154.200497 C192.122365,155.485531 194.692433,156.485005 194.692433,156.485005 L194.692433,156.485005 L194.692433,156.485005 Z" id="path3782" ng-style="colours[1].fill"></path>
                <path d="M136.452011,79.5425706 C135.163681,78.9277738 134.010648,78.3750637 133.438481,78.1028159 C133.312311,78.0427826 133.196885,78.0086595 133.087509,78.001574 C132.321868,77.9519219 131.946257,79.0876768 131.649874,79.8914228 C131.33696,80.7399828 131.316079,80.8090396 130.542963,82.6452025 C129.769847,84.4813653 125.902406,94.1429076 124.549442,97.3320275 C123.196479,100.521147 124.649458,100.421435 125.615857,100.807999 C126.582256,101.194564 130.539575,102.54936 135.854788,104.67544 C135.961097,104.717963 136.066557,104.759444 136.171189,104.799904 C135.57551,104.811679 135.053103,104.827199 134.623491,104.84718 C129.812959,105.070927 132.050418,108.874617 135.294733,109.098365 C138.539048,109.322112 141.559629,109.322112 144.580197,109.433979 C147.600765,109.545859 154.875417,109.162498 157.109976,109.322112 C158.676207,109.433979 159.235569,110.552715 160.130558,114.356392 C161.249795,119.113179 163.262992,124.984339 164.717343,127.78116 C166.171693,130.577994 168.659502,132.822875 171.205986,134.605418 C174.562169,136.954757 177.247122,139.415963 182.617043,143.555268 C187.98695,147.694572 189.776915,151.050754 191.119385,155.301938 C192.461868,159.55311 193.580592,157.986892 194.3637,158.098759 C195.146822,158.210639 195.706184,156.308794 195.482437,154.966311 C195.258689,153.623841 195.034942,153.400093 193.916219,151.050754 C192.797483,148.701428 190.448143,144.785871 186.756334,141.653423 C183.064524,138.520975 175.121543,133.710429 171.877228,130.577994 C169.18741,127.980915 166.842935,123.418109 166.283573,121.628144 C165.724199,119.838179 164.269861,114.244525 163.262992,110.552715 C162.89889,109.217693 164.046114,109.210232 164.046114,109.210232 C164.046114,109.210232 164.829223,108.986484 171.094106,109.433979 C177.359002,109.881473 184.854502,112.118932 188.434431,113.349536 C192.014374,114.580139 193.244977,116.593864 192.126241,118.831323 C191.007518,121.068782 192.909363,120.956902 193.804338,121.628144 C194.699327,122.299386 195.81805,122.187505 196.713039,120.956902 C197.608028,119.726299 197.943643,118.160081 197.943643,116.817598 C197.943643,115.475128 197.160534,113.79703 195.81805,112.566427 C194.47558,111.335824 191.343132,109.433979 188.770059,108.539003 C186.196972,107.644014 182.057668,106.413411 178.92522,106.189664 C175.792785,105.965916 165.388584,105.070927 163.486739,105.070927 C161.584908,105.070927 161.584908,104.84718 161.24928,104.175952 C160.913666,103.50471 160.242424,101.043504 160.130557,99.9247674 C160.018677,98.8060445 160.354304,98.9179114 160.801786,98.9179114 C161.24928,98.9179114 171.317853,99.5891533 177.470882,100.372262 C183.623898,101.155371 188.098817,103.39283 189.4413,104.735313 C190.78377,106.077797 191.790626,107.084653 193.13311,107.420267 C194.47558,107.755881 195.81805,107.084653 195.258689,105.630302 C194.699327,104.175952 192.349988,101.267251 189.32942,99.3654058 C186.308852,97.4635609 181.871372,96.2918836 175.889531,95.6622197 C169.907703,95.0325557 162.669369,95.1394924 160.305292,95.0325557 C158.839024,94.9662212 158.141154,94.6852749 157.786622,93.9306404 C157.042416,92.3465341 156.999546,92.3564737 155.582792,87.3191421 C154.166038,82.2818104 147.397134,64.0214825 145.98038,60.4008981 C145.98038,60.4008981 145.698933,59.9860898 144.580197,58.1961251 C143.461461,56.4061538 140.888387,58.5317393 142.00711,61.3285665 C143.125846,64.125394 146.482042,73.8583525 147.712645,76.319559 C148.943248,78.7807654 151.628202,88.1781032 152.858805,90.9749305 C154.089408,93.7717512 153.865661,94.7786071 152.523191,93.7717512 C151.890337,93.2971138 152.075696,93.5480041 151.180707,92.0936536 C150.285719,90.639303 147.265151,84.0387991 146.258295,81.80134 C145.251439,79.5638741 142.566485,78.3332708 139.993398,78.6688918 C138.920419,78.8088467 137.672354,79.1433381 136.452011,79.5425706 Z" id="path2990-path" ng-style="colours[1].fill"></path>
                <path d="M117.616091,62.0950324 C114.154119,62.0999166 110.577195,62.2571184 107.019438,62.6417387 C88.0447222,64.6930605 51.3732844,81.3628227 37.0140389,100.593952 C22.6547933,119.825089 35.7316415,137.257019 35.7316415,137.257019 C35.7316415,137.257019 39.8363447,144.693896 43.9389849,140.591253 C48.0416283,136.488609 62.6567205,128.542821 68.5542657,125.978672 C74.4518173,123.414523 84.1955328,120.594409 95.2213823,127.774028 C106.247232,134.953648 116.761032,136.231102 125.222732,136.231102 C133.684433,136.231102 143.170127,129.054237 145.477862,120.336123 C147.785597,111.618009 143.425775,104.181897 142.400108,93.1560475 C141.374454,82.1301981 143.939367,71.8732598 145.477862,64.950054 C145.477862,64.950054 132.618005,62.0738745 117.616091,62.0950324 L117.616091,62.0950324 L117.616091,62.0950324 Z M107.437905,86.663067 C110.151465,86.6755706 113.026853,87.7635058 115.24703,89.8488121 C119.194001,93.556019 119.569848,99.0167145 116.083963,102.045086 C112.598078,105.073458 106.572511,104.523892 102.62554,100.816685 C98.6785691,97.1094778 98.3027283,91.6487823 101.788607,88.6204104 C103.313682,87.2954927 105.327354,86.6533382 107.437905,86.663067 L107.437905,86.663067 L107.437905,86.663067 Z" id="path4390" stroke="#4C4C4C" fill="#3F3F3F"></path>
                <path d="M75.9921706,0.0742440605 C44.8922572,0.131981857 16.7826773,24.9118285 8.03860691,42.899568 C-1.83983391,63.2208607 -1.95566955,83.4083575 4.71112311,104.434395 C11.3779156,125.460427 18.5550384,133.668495 21.6320194,142.386609 C24.7089987,151.104723 27.7880445,149.311555 29.8393629,149.311555 C31.8906847,149.311555 36.2469173,147.261077 45.4778618,152.645788 C59.306108,160.712263 72.9169281,165.719492 82.9171166,165.719492 C92.9173052,165.719492 101.379144,163.928117 110.353672,152.902268 C119.328199,141.876418 111.378627,128.797692 107.532397,119.823164 C103.686168,110.848637 104.455606,103.669782 108.301836,95.9773218 C112.148066,88.2848687 122.76519,82.8455289 130.352322,80.5885529 C139.43053,77.8880175 145.630054,74.6519348 152.994651,71.3575326 C160.445778,68.0244266 160.609769,63.9232989 159.071274,60.5899028 C157.53278,57.2565067 151.119896,46.4893184 149.068575,42.6430886 C147.017253,38.7968652 133.429047,-0.0323894168 75.9921706,0.0742440605 L75.9921706,0.0742440605 L75.9921706,0.0742440605 Z M60.3604212,118.00081 C63.0739875,118.01332 65.9493762,119.101249 68.1695464,121.186555 C72.1165173,124.893762 72.4923581,130.354457 69.0064795,133.382829 C65.5206009,136.411201 59.495027,135.854885 55.5480562,132.147678 C51.6010853,128.440471 51.2252445,122.979776 54.7111231,119.951404 C56.2361978,118.626493 58.2498702,117.991081 60.3604212,118.00081 L60.3604212,118.00081 L60.3604212,118.00081 Z" id="path4388" stroke="#A7A7A7" ng-style="colours[0].fill"></path>
                <path d="M20.508464,138.392771 C21.4010464,140.38772 21.6966553,141.272705 22.6794268,143.737771 C24.3485113,147.650943 25.6851155,149.130279 27.9861781,148.967277 C31.271546,148.872558 33.544129,148.069763 37.0288092,148.724122 C37.0288092,134.088576 18.0517768,119.913927 11.3800001,120.496526 C15.5899509,129.634724 16.2965921,129.857733 20.508464,138.392771 Z" id="Oval-1" ng-style="colours[1].fill"></path>
                <path d="M75.2024838,2.09908207 C59.5559039,2.09908207 45.1483873,8.06268812 34.4762419,14.1806156 C31.7591724,16.0487164 29.1803611,18.0354108 26.7616091,20.0931425 C37.6622935,12.9154181 52.0758875,6.90469762 69.2697084,6.90469762 C102.628025,6.90469762 122.990243,27.7700404 135.137689,49.0280778 C144.331574,65.1173667 144.791197,72.3577512 143.844492,75.5264579 C146.642038,74.284287 149.359684,73.0008086 152.227322,71.7062635 C153.999345,67.384467 153.113426,57.053779 135.421166,32.6336393 C127.824201,22.1477467 107.353036,2.09908207 75.2024838,2.09908207 L75.2024838,2.09908207 L75.2024838,2.09908207 Z" id="path3790" ng-style="colours[1].fill"></path>
                <path d="M131.861538,50.3546959 C137.891983,47.7928145 142.725493,46.1028657 145.74142,44.9542711 C149.127421,43.6647352 151.090433,41.2637929 152.977501,45.2840587 C155.419632,50.4868577 158.354843,56.3805864 159.988964,58.9916255 C161.467399,61.3539035 161.203049,64.9512076 160.200557,66.745562 C158.692303,69.445168 155.789692,71.091832 154.062925,71.8318667 C152.33617,72.5719082 143.63493,76.8011106 139.113279,78.4223454 C136.493882,79.3615354 140.810188,76.4922108 139.216354,73.8472397 C137.989797,71.8117898 134.586791,69.3327341 132.942427,65.6942149 C127.813391,54.3450901 127.322091,52.3943972 131.861538,50.3546959 L131.861538,50.3546959 L131.861538,50.3546959 Z" id="path3786" stroke="#CECECE" fill="url(#linearGradient-1)"></path>
                <path d="M159.294534,59.369081 C155.634692,61.7885911 144.51232,67.2798635 138.195194,70.275378 C132.013823,73.205395 111.676961,83.1009998 106.25,85.6911447 C100.823039,88.2812829 97.4936499,89.3921492 95.3968683,91.4889309 C93.3000931,93.5857192 85.9036274,101.35274 83.4368251,104.312905 C80.9700227,107.27307 80.4744646,108.016408 79.9811015,109.49649 C79.4877449,110.976573 78.3748289,113.071002 77.0180886,116.401188 C75.6613482,119.731374 70.7288903,131.943151 69.7421706,134.779968 C68.755451,137.616784 68.5124704,137.987068 69.4991901,139.713823 C70.4859162,141.440577 70.852035,140.455617 72.4554536,140.948974 C74.0588721,141.442331 81.2159562,145.020652 85.2861771,146.25405 C89.3564048,147.487448 92.4416659,147.611337 103.172246,147.117981 C109.185277,146.841516 114.463394,146.363781 119.742171,145.808585 C120.251847,147.090864 121.704866,150.758246 123.089903,154.535637 C124.739038,159.033256 128.484936,167.729592 136.730562,169.978402 C144.9762,172.227211 155.023206,172.826674 161.919546,172.826674 C168.8159,172.826674 181.40359,171.177762 184.401998,169.978402 C187.400419,168.779041 193.530339,167.088657 195.201134,160.684395 C196.07714,157.326618 195.608158,155.220523 194.751992,153.088194 C194.023656,151.274224 190.21588,153.046459 191.033962,155.191258 C192.297864,158.504913 190.99829,161.430909 187.25027,163.829644 C183.502263,166.228378 171.512019,168.331534 161.467332,168.331534 C151.422659,168.331534 143.927147,167.581329 140.928725,166.981642 C137.930317,166.381955 132.381681,163.829894 129.083423,156.034017 C126.776822,150.582036 125.329036,147.009489 124.635529,145.282128 C127.187629,144.997187 129.789098,144.701437 132.525648,144.404698 C142.762865,143.294636 155.344135,140.328868 166.691414,137.12203 C178.038694,133.915193 189.754122,127.626938 192.467602,125.283478 C195.181083,122.940017 198.296868,120.463032 197.772678,116.893899 C197.566437,115.489602 196.831695,115.167223 195.828833,115.348272 C194.955635,115.505922 194.337717,116.57645 192.130129,118.891739 C187.258891,124.000619 182.877859,125.541671 178.489471,127.443305 C176.173733,128.446786 167.70386,131.739112 154.204913,134.894709 C140.70598,138.050305 125.983325,139.889309 123.879589,139.889309 C121.775867,139.889309 121.938065,138.870325 121.463283,137.742981 C120.868183,136.329944 120.860366,136.019693 120.720842,135.333424 C120.509829,134.29551 120.601777,133.929444 122.036987,133.841793 C124.575773,133.68674 140.703225,131.600023 145.842332,130.62905 C155.720905,128.7626 164.57567,126.038283 168.169546,124.898758 C176.17579,122.224377 182.335134,119.533676 189.065875,115.267279 C191.375719,113.728033 193.71736,111.756136 195.113391,109.577484 C196.622053,107.223069 195.05573,104.125291 192.346112,101.727862 C189.733399,99.4161719 187.655237,100.73929 187.655237,101.849352 C187.655237,102.959414 188.152746,103.702303 189.632829,104.812365 C191.112912,105.922427 190.862536,107.400361 189.87581,109.00378 C188.889097,110.607198 187.415895,111.473555 183.187095,113.822894 C178.958294,116.172221 169.444034,119.582385 162.513499,121.814255 C155.582963,124.046125 148.890241,125.335918 143.486771,126.275648 C138.083301,127.215379 123.045767,128.861983 121.166306,129.096922 C119.286846,129.331862 117.761982,130.032632 117.292116,128.975432 C116.822251,127.918232 116.817189,127.218635 115.759989,123.812095 C114.702789,120.405556 104.103329,96.0356019 103.435475,94.5329376 C102.767628,93.0302732 102.936364,92.8690244 103.604211,92.5350974 C104.272065,92.2011704 105.453722,91.5968434 110.37392,89.4100974 C115.294118,87.2233449 125.988809,81.0837816 136.980291,76.1069117 C144.278936,72.8021348 158.765268,65.9986922 162.950592,62.1774037 C164.570291,60.6985799 162.968731,56.9400797 159.294534,59.3690812 L159.294534,59.369081 Z M98.6906048,95.7883369 C98.9918257,95.7938868 99.2160147,95.973143 99.3048056,96.3282937 C99.5077508,97.1400745 104.374876,107.789483 106.810205,113.471922 C109.245534,119.154361 111.986356,126.665047 112.290767,127.578294 C112.595178,128.491541 113.312651,129.561488 111.683315,129.711123 C110.736242,129.798102 109.145901,131.334144 106.00027,126.970842 C102.854633,122.607541 101.029141,119.867352 99.6085313,118.24379 C98.1879216,116.620242 96.9698814,114.892525 93.8242441,113.471922 C90.6786067,112.051306 87.0226339,110.428601 86.2108531,110.12419 C85.3990724,109.819779 84.3850451,109.317247 85.9071274,107.99811 C87.4292097,106.678973 91.2892814,102.312455 93.0143089,100.485961 C94.7393363,98.6594676 97.2732181,96.6320194 97.2732181,96.6320194 C97.7869218,96.0612419 98.3033216,95.7812052 98.6906048,95.7883369 Z" id="path2990" ng-style="colours[1].fill"></path>
                <path d="M177.142637,117.790944 C176.756072,119.047266 176.756072,120.278331 177.239278,120.568254 C177.722484,120.858178 179.625147,120.57449 182.74776,131.198667 C183.523355,133.837482 184.970495,146.467818 184.970495,149.946861 C184.970495,153.425905 185.067136,167.24545 184.777213,168.018567 C184.487289,168.791683 184.100724,169.951364 185.357046,169.854736 C186.613369,169.758095 187.869691,169.564813 188.739462,168.405132 C189.609219,167.24545 189.126013,157.678078 189.126013,149.463655 C189.126013,141.249246 187.77305,132.358348 186.033535,127.526341 C184.294006,122.694334 182.844402,118.442161 181.201528,117.185852 C179.558641,115.92953 177.436463,116.835987 177.142637,117.790944 L177.142637,117.790944 L177.142637,117.790944 Z" id="path3780" ng-style="colours[1].fill"></path>
                <path d="M144.39083,72.6333322 C144.39083,72.6333322 146.934743,71.8116778 145.932976,69.4741959 C145.297854,67.9922676 144.597268,67.3871626 143.345046,67.5541261 C142.352058,67.6865251 142.42675,67.2201991 141.591939,65.8844983 C140.757129,64.5487972 139.755348,63.2130896 141.174527,62.294794 C142.96556,61.1358972 144.680753,60.5416877 145.432079,60.1242823 C146.183418,59.7068704 146.43386,60.708651 147.101713,61.7104253 C147.904504,62.8309279 148.104852,64.1034648 149.355703,63.797465 C150.721823,63.4632613 151.869983,64.1510603 152.528002,65.8010132 C153.012039,67.0147428 153.47261,68.3186145 151.385577,69.4873521 C149.809855,70.3697583 147.383002,71.7281927 146.214265,72.3960464 C145.045514,73.0638937 144.39083,72.6333322 144.39083,72.6333322 L144.39083,72.6333322 L144.39083,72.6333322 Z" id="path3788" stroke="#CECECE" stroke-width="2.2" fill-opacity="0.529412" fill="#898989"></path>
                <path d="M154.386569,67.4821035 C154.386569,67.4821035 156.851664,66.6853706 155.880928,64.4188043 C155.265488,62.9818218 154.586614,62.3950801 153.373187,62.5569749 C152.410968,62.6853596 152.48334,62.2331788 151.674393,60.9380009 C150.865447,59.6428164 149.894711,58.347632 151.269913,57.4571909 C153.00546,56.3334521 154.377592,56.2404689 155.105637,55.8357188 C155.833695,55.4309754 156.076386,56.4023637 156.723543,57.3737521 C157.501458,58.4602635 157.212391,59.6941952 158.424499,59.3974762 C159.74829,59.0734164 160.667587,59.8369821 161.305227,61.4368875 C161.774275,62.6137983 161.834005,63.4915577 160.101556,64.6248406 C158.636817,65.5830069 157.286029,66.6044229 156.153504,67.2520151 C155.020979,67.8996073 154.386569,67.4821032 154.386569,67.4821032 L154.386569,67.4821035 L154.386569,67.4821035 Z" id="path3796" stroke="#CECECE" stroke-width="2.2" fill-opacity="0.529412" fill="#898989"></path>
                <path d="M75.3563965,120.476438 C75.3563965,120.476438 74.9505063,120.172027 73.9357868,120.882328 C72.9210674,121.59263 71.0945674,127.985384 70.4857317,129.203041 C69.8769028,130.420713 69.4710123,131.942795 70.0798415,132.754562 C70.6886771,133.566343 72.6166497,134.784014 73.9357868,134.581069 C75.254924,134.378124 75.6608143,133.058987 76.6755337,133.261932 C77.6902596,133.464877 80.4300065,134.88548 81.9520888,135.494316 C83.4741711,136.103152 89.8669181,137.828179 92.4037199,133.972234 C94.9405216,130.116288 91.9978296,126.869178 88.5477745,125.448575 C85.0977261,124.027959 81.2417806,122.810301 80.531479,122.505876 C79.8211708,122.201465 79.4152806,123.013246 78.4005611,123.114712 C77.3858352,123.216191 76.5740609,123.013246 75.7622803,122.201465 C74.9505063,121.389684 75.3563965,120.476438 75.3563965,120.476438 L75.3563965,120.476438 L75.3563965,120.476438 Z" id="path3860" stroke="#CECECE" stroke-width="2.2" fill-opacity="0.531073" fill="#4C4C4C"></path>
                <path d="M89.0451978,132.133402 C88.5036514,133.305846 87.2365105,134.153538 85.7210948,134.35716 C84.2056791,134.560783 82.6722164,134.0894 81.6983473,133.120579 C80.7244781,132.151757 80.4581564,130.832683 80.999703,129.660238 C81.5412495,128.487794 82.8083904,127.640102 84.3238061,127.43648 C85.8392217,127.232857 87.3726844,127.70424 88.3465536,128.673061 C89.3204227,129.641883 89.5867444,130.960957 89.0451978,132.133402 L89.0451978,132.133402 L89.0451978,132.133402 Z" id="path3862" fill="#BDBDBD"></path>
            </g>
        </g>
    </g>
</svg>
