<?xml version="1.0" encoding="UTF-8" standalone="no"?>
<svg width="110px" height="110px" viewBox="0 0 110 110" version="1.1" xmlns="http://www.w3.org/2000/svg" xmlns:xlink="http://www.w3.org/1999/xlink" xmlns:sketch="http://www.bohemiancoding.com/sketch/ns">
    <!-- Generator: Sketch 3.3.2 (12043) - http://www.bohemiancoding.com/sketch -->
    <title>Steam logo</title>
    <desc>Created with Sketch.</desc>
    <defs></defs>
    <g id="Page-1" stroke="none" stroke-width="1" fill="none" fill-rule="evenodd" sketch:type="MSPage">
        <g id="Artboard-1" sketch:type="MSArtboardGroup" transform="translate(-10.000000, -15.000000)" fill="#FFFFFF">
            <g id="White" sketch:type="MSLayerGroup" transform="translate(10.000000, 15.000000)">
                <path d="M55,0 C25.881,0 2.062,22.634 0.14,51.267 L28.665,62.774 C31.172,61.029 34.214,60 37.5,60 C38.206,60 38.896,60.063 39.576,60.155 L53.002,40.464 C53.021,29.159 62.19,20 73.5,20 C84.822,20 94,29.178 94,40.5 C94,51.822 84.822,61 73.5,61 C73.49,61 73.479,60.999 73.469,60.999 L52.944,74.385 C52.97,74.754 53,75.124 53,75.5 C53,84.061 46.061,91 37.5,91 C29.935,91 23.645,85.578 22.282,78.409 L2.118,70.107 C8.685,93.134 29.866,110 55,110 C85.376,110 110,85.376 110,55 C110,24.625 85.376,0 55,0 L55,0 Z M37.5,84 C36.585,84 35.705,83.852 34.879,83.584 L34.875,83.594 L34.623,83.49 C34.38,83.403 34.143,83.305 33.911,83.197 L27.106,80.396 C28.945,84.295 32.902,87 37.5,87 C43.851,87 49,81.852 49,75.5 C49,69.148 43.851,64 37.5,64 C36.094,64 34.753,64.265 33.507,64.727 L40.707,67.631 C40.757,67.652 40.807,67.67 40.856,67.692 L41.416,67.918 L41.401,67.955 C44.131,69.368 46,72.213 46,75.5 C46,80.194 42.194,84 37.5,84 L37.5,84 Z M88,40.5 C88,32.492 81.508,26 73.5,26 C65.492,26 59,32.492 59,40.5 C59,48.508 65.492,55 73.5,55 C81.508,55 88,48.508 88,40.5 L88,40.5 Z M63,40.5 C63,34.701 67.701,30 73.5,30 C79.299,30 84,34.701 84,40.5 C84,46.299 79.299,51 73.5,51 C67.701,51 63,46.299 63,40.5 L63,40.5 Z" id="Shape" sketch:type="MSShapeGroup"></path>
            </g>
        </g>
    </g>
</svg>
