<?xml version="1.0" encoding="UTF-8" standalone="no"?>
<svg width="20px" height="20px" viewBox="0 0 20 20" version="1.1" xmlns="http://www.w3.org/2000/svg" xmlns:xlink="http://www.w3.org/1999/xlink" xmlns:sketch="http://www.bohemiancoding.com/sketch/ns">
    <!-- Generator: Sketch 3.3.2 (12043) - http://www.bohemiancoding.com/sketch -->
    <title>Forum Logo</title>
    <desc>Created with Sketch.</desc>
    <defs></defs>
    <g id="Page-1" stroke="none" stroke-width="1" fill="none" fill-rule="evenodd" sketch:type="MSPage">
        <g id="Icons-Communication" sketch:type="MSLayerGroup" transform="translate(-210.000000, -41.000000)" fill="#FFFFFF">
            <g id="forum" transform="translate(210.000000, 41.000000)" sketch:type="MSShapeGroup">
                <path d="M19,4 L17,4 L17,13 L4,13 L4,15 C4,15.6 4.4,16 5,16 L16,16 L20,20 L20,5 C20,4.4 19.6,4 19,4 L19,4 Z M15,10 L15,1 C15,0.4 14.6,0 14,0 L1,0 C0.4,0 0,0.4 0,1 L0,15 L4,11 L14,11 C14.6,11 15,10.6 15,10 L15,10 Z" id="Shape"></path>
            </g>
        </g>
    </g>
</svg>
