<?xml version="1.0" encoding="UTF-8" standalone="no"?>
<svg width="16px" height="17px" viewBox="0 0 16 17" version="1.1" xmlns="http://www.w3.org/2000/svg" xmlns:xlink="http://www.w3.org/1999/xlink" xmlns:sketch="http://www.bohemiancoding.com/sketch/ns">
    <!-- Generator: Sketch 3.3.2 (12043) - http://www.bohemiancoding.com/sketch -->
    <title>Connect Logo</title>
    <desc>Created with Sketch.</desc>
    <defs></defs>
    <g id="Page-1" stroke="none" stroke-width="1" fill="none" fill-rule="evenodd" sketch:type="MSPage">
        <g id="Artboard-2" sketch:type="MSArtboardGroup" transform="translate(-117.000000, -437.000000)" fill="#FFFFFF">
            <g id="Core" sketch:type="MSLayerGroup" transform="translate(29.000000, 16.000000)">
                <g id="settings-power" transform="translate(88.000000, 421.000000)" sketch:type="MSShapeGroup">
                    <path d="M9,0 L7,0 L7,10 L9,10 L9,0 L9,0 Z M12.6,2.4 L11.2,3.8 C12.8,4.9 14,6.8 14,9 C14,12.3 11.3,15 8,15 C4.7,15 2,12.3 2,9 C2,6.8 3.2,4.9 4.9,3.9 L3.4,2.4 C1.4,3.9 0,6.3 0,9 C0,13.4 3.6,17 8,17 C12.4,17 16,13.4 16,9 C16,6.3 14.6,3.9 12.6,2.4 L12.6,2.4 Z" id="Shape"></path>
                </g>
            </g>
        </g>
    </g>
</svg>
