<?xml version="1.0" encoding="UTF-8" standalone="no"?>
<svg width="385px" height="385px" viewBox="0 0 385 385" version="1.1" xmlns="http://www.w3.org/2000/svg" xmlns:xlink="http://www.w3.org/1999/xlink" xmlns:sketch="http://www.bohemiancoding.com/sketch/ns">
    <!-- Generator: Sketch 3.3.2 (12043) - http://www.bohemiancoding.com/sketch -->
    <title>Mumble logo</title>
    <desc>Created with Sketch.</desc>
    <defs>
        <circle id="path-1" cx="192.5" cy="192.5" r="192.5"></circle>
    </defs>
    <g id="Page-1" stroke="none" stroke-width="1" fill="none" fill-rule="evenodd" sketch:type="MSPage">
        <g id="Artboard-1" sketch:type="MSArtboardGroup">
            <g id="Icons_mumble" sketch:type="MSLayerGroup">
                <mask id="mask-2" sketch:name="Mask" fill="white">
                    <use xlink:href="#path-1"></use>
                </mask>
                <use id="Mask" stroke="#FFFFFF" stroke-width="6" sketch:type="MSShapeGroup" xlink:href="#path-1"></use>
                <g mask="url(#mask-2)">
                    <g transform="translate(33.000000, 24.000000)">
                        <g id="MU" transform="translate(50.000000, 0.000000)"></g>
                        <g id="Ears">
                            <path d="M64.3436733,127.750053 L63.1792144,127.750053 L63.1792144,127.750053 L63.1792144,302.157573 C28.0511043,298.304083 0.44171125,259.969413 0.44171125,213.235698 C0.44171125,172.167378 21.7628358,137.585152 50.7710494,127.189008 L50.7710494,56.9734908 C50.7710494,26.8843776 77.1996535,0.75971897 119.384148,0.75971897 C119.384148,0.75971897 132.595985,0.75971897 132.801995,10.1172423 C132.595985,32.8833329 132.822259,75.3925641 132.801994,98.1974784 C133.243456,108.074093 140.186516,111.178031 158.937401,110.82257 C176.663803,111.178031 184.287474,109.957352 185.078575,98.1974784 C185.289384,70.1271543 185.192774,39.2761182 185.078576,11.200689 C185.062828,0.75971897 199.289665,0.75971897 199.289665,0.75971897 C238.473839,0.75971897 267.103752,26.8843776 267.103757,56.9734923 L267.103757,126.384998 C295.91358,136.949605 317.044487,171.406091 317.044487,212.290803 C317.044487,256.107493 292.774174,292.540919 260.792101,300.094422 C261.101573,301.548553 260.508577,303.098012 259.164318,303.968928 C259.164318,303.968928 249.233135,311.96452 243.863057,315.399259 C238.811591,318.40375 235.953344,320.853873 231.567662,322.778071 C229.808523,323.549884 226.850211,324.411115 226.031547,324.411115 L190.458125,324.411115 C190.028419,324.411115 189.614499,324.340861 189.227712,324.211487 C185.462757,330.943015 174.590075,335.808307 161.764292,335.808307 C145.81707,335.808307 132.889292,328.28669 132.889292,319.008305 C132.889292,309.729921 145.81707,302.208304 161.764292,302.208304 C175.93955,302.208304 187.72909,308.151267 190.174051,315.988398 L190.174051,315.988398 C190.267879,315.981707 190.362612,315.978303 190.458125,315.978303 L224.288652,315.978303 C224.288652,315.978303 226.231163,315.811794 228.608321,314.667703 C231.629265,313.213747 234.854004,311.076556 237.858653,309.100131 C241.204982,306.898942 244.328658,304.552402 247.618014,302.104464 C248.090541,301.752809 248.520772,301.395127 248.91186,301.038531 L248.91186,301.038531 L242.858629,301.038531 C240.708939,301.038531 238.966271,299.295108 238.966271,297.141951 L238.966271,124.38868 C238.966271,122.976799 239.712296,121.740303 240.835183,121.056778 C240.79984,99.8415877 240.955056,78.7017236 240.675152,57.4229028 C239.935133,41.8608644 227.682884,26.8843776 210.600684,26.8843773 C210.600684,48.184397 210.600685,76.8974598 210.600685,98.1974784 C210.600685,115.705199 203.093048,131.156206 185.078575,131.156203 L132.801994,131.156203 C118.965225,131.156203 105.360046,115.705199 105.789726,98.1974772 C105.360045,74.4049077 105.718316,50.5880979 105.600684,26.7859398 C89.481018,26.8843776 78.0066634,42.3692345 77.1996544,57.3244653 C76.9097284,79.2343791 77.0847589,100.993536 77.0360333,122.843749 C77.6196231,123.512897 77.9730234,124.388559 77.9730234,125.349432 L77.9730234,298.281211 C77.9730234,300.386995 76.2744143,302.09407 74.1583663,302.09407 L68.1583305,302.09407 C66.0515535,302.09407 64.3436733,300.393538 64.3436733,298.281211 L64.3436733,127.750053 Z M252.873237,296.019672 C253.247928,295.969681 253.76831,295.997369 254.306987,296.052438 L254.306987,127.84849 L254.306987,127.84849 L252.873237,127.84849 L252.873237,296.019672 L252.873237,296.019672 Z" id="rect1019" fill="#FFFFFF" sketch:type="MSShapeGroup"></path>
                        </g>
                        <g id="BLE" transform="translate(88.000000, 155.000000)">
                            <path d="M0.63644,0.83058 L141.47099,0.83058 L141.47099,112.7158 L0.63644,112.7158 L0.63644,0.83058 Z M96.8125,9.5 L96.8125,104.03125 L111,104.03125 L132.375,104.03125 L132.375,84.78125 L111,84.78125 L111,62.5 L130.65625,62.5 L130.65625,43.84375 L111,43.84375 L111,28.75 L132.375,28.75 L132.375,9.5 L111,9.5 L110.9375,9.5 L96.8125,9.5 Z M56.3125,9.5625 L56.3125,104.09375 L70.4375,104.09375 L70.5,104.09375 L91.875,104.09375 L91.875,84.84375 L70.5,84.84375 L70.5,9.5625 L56.3125,9.5625 Z M49.6743332,74.8050939 C49.6742892,79.4302997 49.1927233,83.4929253 48.2296356,86.9930308 C47.2664598,90.4931763 45.9708219,93.3891201 44.342711,95.6808423 C42.4164035,98.4309609 40.3009589,100.389351 37.9963552,101.556053 C35.6916965,102.722775 32.7621689,103.306116 29.2077835,103.306116 L8.70683625,103.306116 L8.70683625,10.2402793 L26.7999541,10.2402793 C30.5607249,10.2403793 33.4099879,10.5008087 35.3477429,11.0215673 C37.2854429,11.542506 39.102779,12.6363052 40.7997621,14.302925 C42.6342584,16.0947492 44.0044261,18.4906751 44.9102653,21.4906826 C45.8160274,24.4908702 46.2689305,27.9493342 46.2689745,31.8660546 C46.2689305,36.4079574 45.6440396,40.4497623 44.3943018,43.9914893 C43.144487,47.5333562 41.4188852,50.1376096 39.2174742,51.8042693 L39.2174742,52.3042873 C42.3820059,53.5127306 44.915967,55.9815591 46.8193355,59.7108128 C48.7226269,63.4401465 49.6742892,68.4715868 49.6743332,74.8050939 Z M33.1979007,36.5537226 C33.1978677,35.0537489 32.9857476,33.5120336 32.5615403,31.9285568 C32.1372781,30.3452401 31.4779896,29.199379 30.583686,28.4909336 C29.7351834,27.8243297 28.7319304,27.4597366 27.5738938,27.3971544 C26.4158242,27.3347521 24.6902113,27.303551 22.3970661,27.303351 L21.5027295,27.303351 L21.5027295,46.9915568 L23.1194149,46.9915568 C25.3208369,46.9916168 26.8629925,46.9499553 27.7458816,46.8665523 C28.6287377,46.7833494 29.5402676,46.3457737 30.4804933,45.5540053 C31.5123872,44.6790339 32.2232775,43.4706706 32.6131422,41.9288753 C33.0029519,40.3872201 33.1978677,38.5954958 33.1979007,36.5536826 L33.1979007,36.5537226 Z M36.4312716,74.3675782 C36.4312386,71.4925151 36.110191,69.2424345 35.4681399,67.6173362 C34.8260227,65.992318 33.8628909,64.7631139 32.5787446,63.929704 C31.7990372,63.3880646 30.726978,63.0859738 29.362567,63.0234315 C27.998112,62.9610293 26.1693065,62.9296282 23.8761613,62.9296282 L21.5027295,62.9296282 L21.5027295,86.2429639 L22.1906807,86.2429639 C25.5386918,86.2429839 27.854787,86.2013624 29.1389884,86.1179594 C30.4231347,86.0347565 31.7302421,85.4721363 33.0603105,84.430399 C34.2297946,83.5137261 35.0839989,82.1699379 35.6229234,80.3990144 C36.1617929,78.6281309 36.4312386,76.6176589 36.4312716,74.3675382 L36.4312716,74.3675782 Z" id="rect287" fill="#FFFFFF" sketch:type="MSShapeGroup"></path>
                        </g>
                    </g>
                </g>
            </g>
        </g>
    </g>
</svg>
